<svg preserveAspectRatio="none" width="100%" height="100%" overflow="visible" style="display: block;" viewBox="0 0 91.0038 46.9964" fill="none" xmlns="http://www.w3.org/2000/svg">
<g id="Group">
<path id="Vector" d="M33.9957 18.9118C33.9957 18.9118 29.1266 18.8589 26.1308 18.8249C24.8053 18.8098 23.5334 18.4548 23.5334 18.4548C23.6828 18.6739 24.1119 18.9646 24.1885 19.0175C24.9854 19.5198 25.7515 19.8408 26.6671 19.9276C27.5138 20.0069 28.3796 19.9352 29.2224 19.9352C31.1723 19.9427 33.1223 19.988 35.0722 20.0447C36.187 20.0787 37.3133 20.1315 38.4319 20.1391C37.5853 19.6708 36.505 19.4933 35.5894 19.1723C35.0722 18.9873 34.532 18.9005 33.9919 18.9118H33.9957Z" fill="var(--fill-0, #ED6927)"/>
<path id="Vector_2" d="M65.2408 7.91138C63.9804 7.59039 62.6626 7.51109 61.452 6.95975C60.5402 6.54435 59.9235 5.67202 59.0347 5.19998C56.8434 4.03688 54.3533 4.54668 52.3229 5.90615C51.9743 6.14029 51.6372 6.39708 51.3154 6.66897C51.1659 6.79736 50.4113 7.66969 50.2772 7.63948C50.2772 7.63948 54.9931 8.6893 53.9204 12.1673C52.8516 15.6415 46.9098 18.3944 39.7459 17.1633C42.9601 16.5063 46.3735 15.5848 49.2735 13.8213C50.0397 13.353 50.9667 12.7413 51.3728 11.7897C52.614 8.87434 48.2046 7.55263 46.634 7.15989C40.5696 5.63804 34.2562 5.2604 28.3642 2.90021C26.805 2.26956 24.8934 1.47276 23.5449 0.849671C22.7481 0.479592 22.1466 0.169934 21.9589 0L22.1696 0.207697L24.4069 4.51647C24.675 5.0376 25.062 5.44544 25.537 5.69846C25.8971 5.88727 26.4411 6.13651 27.0962 6.40085C27.1307 6.41973 27.1537 6.44239 27.1958 6.4575L27.3912 6.51792C28.3987 6.91065 29.7051 7.34871 31.429 7.77543L36.0414 9.16134L36.0644 9.21798C36.0644 9.21798 27.5253 8.07376 25.763 6.98996C25.763 6.98996 29.6514 11.1703 31.3907 11.4875C32.6472 11.7179 35.9955 12.1635 37.6504 12.409C37.8151 12.4354 38.1791 12.4618 38.2672 12.5072C38.5047 12.6167 38.4434 12.7073 38.4473 12.6997C36.3058 12.8508 31.5324 12.2504 31.5324 12.2504C32.1415 12.9679 37.026 14.4331 37.026 14.4331C34.9649 15.1732 21.798 16.4912 21.798 16.4912C22.2232 16.9179 22.4838 17.1671 23.1695 17.3257C26.127 18.013 30.1916 17.794 32.2526 17.7109C33.6586 17.6543 35.0377 18.1112 36.3632 18.5946C38.4894 19.3612 40.6462 19.8596 42.872 19.8256C44.7606 19.7954 46.6454 19.4896 48.4613 18.9005C50.7331 18.1603 52.8899 16.9519 54.7555 15.2714C55.2995 14.7805 55.8129 14.2556 56.2994 13.6967C56.5561 13.4059 56.8013 13.1038 57.0388 12.7979C57.2686 12.5034 57.4678 12.1144 57.7207 11.8538C58.031 11.5404 58.5175 11.0457 58.8278 10.7323C59.5021 10.3207 60.2299 9.96569 60.9808 9.75044C61.7393 9.53519 62.4978 9.53142 63.2679 9.46344C65.6699 9.24442 69.2096 8.91965 69.2096 8.91965C67.8918 8.58356 66.574 8.24747 65.2561 7.91138L65.2485 7.91893L65.2408 7.91138Z" fill="var(--fill-0, #ED6927)"/>
<path id="Vector_3" d="M9.01802 28.2468C9.01802 27.265 9.74207 26.5626 10.7151 26.5626C11.2553 26.5626 11.7073 26.7665 11.9985 27.1404L11.5349 27.586C11.3281 27.3367 11.0599 27.2046 10.7496 27.2046C10.1635 27.2046 9.74973 27.6313 9.74973 28.2468C9.74973 28.8624 10.1635 29.2891 10.7496 29.2891C11.0599 29.2891 11.3242 29.1569 11.5349 28.9039L11.9985 29.3495C11.7035 29.7271 11.2553 29.9311 10.7075 29.9311C9.73824 29.9311 9.01419 29.2287 9.01419 28.2506L9.01802 28.2468Z" fill="var(--fill-0, #19332E)"/>
<path id="Vector_4" d="M12.5808 28.2468C12.5808 27.2801 13.3048 26.5626 14.2932 26.5626C15.2816 26.5626 16.0056 27.2725 16.0056 28.2468C16.0056 29.2211 15.2778 29.9273 14.2932 29.9273C13.3087 29.9273 12.5808 29.2098 12.5808 28.2468ZM15.2701 28.2468C15.2701 27.6275 14.8487 27.2046 14.2932 27.2046C13.7377 27.2046 13.3163 27.6275 13.3163 28.2468C13.3163 28.8661 13.7377 29.2891 14.2932 29.2891C14.8487 29.2891 15.2701 28.8661 15.2701 28.2468Z" fill="var(--fill-0, #19332E)"/>
<path id="Vector_5" d="M19.7715 26.6192V29.8744H19.1777L17.6185 27.8994V29.8744H16.9021V26.6192H17.4997L19.0512 28.5942V26.6192H19.7676H19.7715Z" fill="var(--fill-0, #19332E)"/>
<path id="Vector_6" d="M20.8671 26.6192H22.2884C23.3112 26.6192 24.0123 27.2612 24.0123 28.2468C24.0123 29.2324 23.3112 29.8744 22.2884 29.8744H20.8671V26.6192ZM22.2539 29.2551C22.8783 29.2551 23.2806 28.8699 23.2806 28.2431C23.2806 27.6162 22.8745 27.231 22.2539 27.231H21.5911V29.2475H22.2539V29.2551Z" fill="var(--fill-0, #19332E)"/>
<path id="Vector_7" d="M24.721 28.2468C24.721 27.2801 25.4451 26.5626 26.4334 26.5626C27.4218 26.5626 28.1459 27.2725 28.1459 28.2468C28.1459 29.2211 27.418 29.9273 26.4334 29.9273C25.4489 29.9273 24.721 29.2098 24.721 28.2468ZM27.4065 28.2468C27.4065 27.6275 26.9851 27.2046 26.4296 27.2046C25.8741 27.2046 25.4527 27.6275 25.4527 28.2468C25.4527 28.8661 25.8741 29.2891 26.4296 29.2891C26.9851 29.2891 27.4065 28.8661 27.4065 28.2468Z" fill="var(--fill-0, #19332E)"/>
<path id="Vector_8" d="M31.8849 29.8706V27.9183L30.9616 29.527H30.636L29.7204 27.9598V29.8706H29.0423V26.6155H29.6399L30.8084 28.6396L31.9615 26.6155H32.5553L32.5668 29.8706H31.8887H31.8849Z" fill="var(--fill-0, #19332E)"/>
<path id="Vector_9" d="M34.2217 25.6827H34.9726L34.1643 26.3511H33.6164L34.2179 25.6827H34.2217ZM33.6624 26.6192H34.3865V29.8744H33.6624V26.6192Z" fill="var(--fill-0, #19332E)"/>
<path id="Vector_10" d="M38.3515 26.6192V29.8744H37.7577L36.1985 27.8994V29.8744H35.4821V26.6192H36.0797L37.6313 28.5942V26.6192H38.3477H38.3515Z" fill="var(--fill-0, #19332E)"/>
<path id="Vector_11" d="M39.451 26.6192H40.1712V29.8744H39.451V26.6192Z" fill="var(--fill-0, #19332E)"/>
<path id="Vector_12" d="M41.0753 28.2468C41.0753 27.2801 41.7993 26.5626 42.7877 26.5626C43.7761 26.5626 44.5001 27.2725 44.5001 28.2468C44.5001 29.2211 43.7723 29.9273 42.7877 29.9273C41.8032 29.9273 41.0753 29.2098 41.0753 28.2468ZM43.7646 28.2468C43.7646 27.6275 43.3432 27.2046 42.7877 27.2046C42.2322 27.2046 41.8108 27.6275 41.8108 28.2468C41.8108 28.8661 42.2322 29.2891 42.7877 29.2891C43.3432 29.2891 43.7646 28.8661 43.7646 28.2468Z" fill="var(--fill-0, #19332E)"/>
<path id="Vector_13" d="M49.0091 29.8706L48.4077 28.9643H47.7411V29.8706H47.0209V26.6155H48.3732C49.2083 26.6155 49.7293 27.0648 49.7293 27.7937C49.7293 28.2808 49.4957 28.6396 49.0858 28.8208L49.7868 29.8669H49.0053L49.0091 29.8706ZM48.3349 27.231H47.7449V28.3639H48.3349C48.7754 28.3639 49.0015 28.1486 49.0015 27.7974C49.0015 27.4462 48.7793 27.231 48.3349 27.231Z" fill="var(--fill-0, #19332E)"/>
<path id="Vector_14" d="M53.0814 29.2702V29.8744H50.6603V26.6192H53.024V27.2272H51.3805V27.9334H52.8324V28.5187H51.3805V29.2702H53.0814Z" fill="var(--fill-0, #19332E)"/>
<path id="Vector_15" d="M53.7672 29.5534L54.0123 28.987C54.2767 29.1871 54.6674 29.3269 55.0467 29.3269C55.4719 29.3269 55.6481 29.1758 55.6481 28.9794C55.6481 28.3714 53.8284 28.7906 53.8284 27.5822C53.8284 27.0271 54.2537 26.5701 55.1463 26.5701C55.5409 26.5701 55.9393 26.6683 56.2304 26.8571L56.0082 27.4274C55.7171 27.2537 55.4183 27.1706 55.1425 27.1706C54.7172 27.1706 54.5487 27.3367 54.5487 27.5407C54.5487 28.1411 56.3645 27.7257 56.3645 28.9228C56.3645 29.4666 55.9316 29.9348 55.0352 29.9348C54.5372 29.9348 54.0391 29.78 53.7633 29.5572L53.7672 29.5534Z" fill="var(--fill-0, #19332E)"/>
<path id="Vector_16" d="M57.2188 26.6192H57.9429V29.8744H57.2188V26.6192Z" fill="var(--fill-0, #19332E)"/>
<path id="Vector_17" d="M59.0424 26.6192H60.4636C61.4865 26.6192 62.1875 27.2612 62.1875 28.2468C62.1875 29.2324 61.4865 29.8744 60.4636 29.8744H59.0424V26.6192ZM60.4292 29.2551C61.0498 29.2551 61.4558 28.8699 61.4558 28.2431C61.4558 27.6162 61.0498 27.231 60.4292 27.231H59.7664V29.2475H60.4292V29.2551Z" fill="var(--fill-0, #19332E)"/>
<path id="Vector_18" d="M65.5051 29.2702V29.8744H63.084V26.6192H65.4438V27.2272H63.8004V27.9334H65.2523V28.5187H63.8004V29.2702H65.5013H65.5051Z" fill="var(--fill-0, #19332E)"/>
<path id="Vector_19" d="M69.3093 26.6192V29.8744H68.7155L67.1563 27.8994V29.8744H66.4399V26.6192H67.0375L68.589 28.5942V26.6192H69.3054H69.3093Z" fill="var(--fill-0, #19332E)"/>
<path id="Vector_20" d="M70.2095 28.2468C70.2095 27.265 70.9336 26.5626 71.9066 26.5626C72.4468 26.5626 72.895 26.7665 73.19 27.1404L72.7264 27.586C72.5196 27.3367 72.2514 27.2046 71.9411 27.2046C71.355 27.2046 70.9412 27.6313 70.9412 28.2468C70.9412 28.8624 71.355 29.2891 71.9411 29.2891C72.2514 29.2891 72.5157 29.1569 72.7264 28.9039L73.19 29.3495C72.895 29.7271 72.4468 29.9311 71.899 29.9311C70.9297 29.9311 70.2057 29.2287 70.2057 28.2506L70.2095 28.2468Z" fill="var(--fill-0, #19332E)"/>
<path id="Vector_21" d="M74.0366 26.6192H74.7607V29.8744H74.0366V26.6192Z" fill="var(--fill-0, #19332E)"/>
<path id="Vector_22" d="M77.9174 29.1758H76.4654L76.1858 29.8744H75.4426L76.837 26.6192H77.5534L78.9517 29.8744H78.1932L77.9135 29.1758H77.9174ZM77.6913 28.6056L77.1933 27.3594L76.6953 28.6056H77.6875H77.6913Z" fill="var(--fill-0, #19332E)"/>
<path id="Vector_23" d="M79.6375 26.6192H80.3615V29.2589H81.9284V29.8706H79.6375V26.6155V26.6192Z" fill="var(--fill-0, #19332E)"/>
<path id="Vector_24" d="M91 27.6577H85.1425V28.194H91V27.6577Z" fill="var(--fill-0, #ED6927)"/>
<path id="Vector_25" d="M5.8575 27.6577H0V28.194H5.8575V27.6577Z" fill="var(--fill-0, #ED6927)"/>
<path id="Vector_26" d="M4.42473 46.9962L3.32525 45.1118C3.21798 45.1118 3.11072 45.1194 3.00728 45.1269C2.90385 45.1383 2.78126 45.1421 2.65101 45.1421C2.14149 45.1421 1.68944 45.0816 1.29102 44.9683C0.896438 44.8513 0.578471 44.6134 0.348615 44.2433C0.118759 43.877 0.00383093 43.3219 0.00383093 42.5817V36.8002C0.00383093 36.1469 0.12259 35.6597 0.360108 35.335C0.597626 35.0102 0.919424 34.7912 1.3255 34.6817C1.73541 34.5721 2.19129 34.5155 2.70081 34.5155C3.21032 34.5155 3.69302 34.5759 4.08761 34.6892C4.48219 34.8063 4.78484 35.0253 5.01086 35.3501C5.23689 35.6748 5.34798 36.1582 5.34798 36.7964V42.5666C5.34798 43.2652 5.25221 43.7901 5.06449 44.1338C4.87295 44.4812 4.60095 44.7267 4.24851 44.8664L5.24072 46.5242L4.42473 46.9962ZM2.70081 44.4699C3.01111 44.4699 3.27545 44.4321 3.50147 44.3566C3.7275 44.2811 3.90755 44.13 4.04163 43.9034C4.17955 43.6768 4.24467 43.337 4.24467 42.8838V36.8002C4.24467 36.3357 4.17572 35.992 4.04163 35.773C3.90372 35.554 3.72367 35.4029 3.48998 35.3274C3.26012 35.2519 2.99579 35.2141 2.69698 35.2141C2.39816 35.2141 2.11851 35.2519 1.88865 35.3274C1.65879 35.4029 1.47491 35.5502 1.34849 35.773C1.21824 35.992 1.15311 36.3357 1.15311 36.8002V42.8838C1.15311 43.337 1.21824 43.6768 1.34849 43.9034C1.47874 44.13 1.65879 44.2811 1.88865 44.3566C2.11851 44.4321 2.3905 44.4699 2.69698 44.4699H2.70081Z" fill="var(--fill-0, #19332E)"/>
<path id="Vector_27" d="M8.9912 45.0967C8.37825 45.0967 7.91854 44.9872 7.61973 44.7758C7.32474 44.5605 7.1332 44.2773 7.05275 43.9299C6.96847 43.5824 6.93016 43.2086 6.93016 42.8121V36.3319H8.02964V42.6799C8.02964 42.9367 8.04496 43.1859 8.07178 43.4389C8.10242 43.6882 8.20969 43.8921 8.40124 44.0469C8.58895 44.2055 8.90309 44.2811 9.33982 44.2811C9.65012 44.2811 9.89147 44.2282 10.0677 44.1224C10.2439 44.0167 10.378 43.8921 10.4776 43.7486C10.5734 43.6051 10.6308 43.4729 10.6538 43.3559V36.3357H11.7533V44.9646H10.8147L10.7266 44.0243C10.6308 44.3037 10.4393 44.5529 10.1481 44.7758C9.85699 44.9948 9.47007 45.1081 8.98354 45.1081L8.9912 45.0967Z" fill="var(--fill-0, #19332E)"/>
<path id="Vector_28" d="M14.0021 35.267C13.8258 35.267 13.6726 35.2066 13.55 35.082C13.4274 34.9611 13.3623 34.8176 13.3623 34.6552C13.3623 34.4815 13.4236 34.338 13.55 34.2285C13.6726 34.119 13.8258 34.0623 14.0021 34.0623C14.1668 34.0623 14.3124 34.119 14.4465 34.2285C14.5767 34.338 14.6418 34.4815 14.6418 34.6552C14.6418 34.8176 14.5767 34.9611 14.4465 35.082C14.3162 35.2028 14.1668 35.267 14.0021 35.267ZM13.4504 44.957V36.3281H14.5346V44.957H13.4504Z" fill="var(--fill-0, #19332E)"/>
<path id="Vector_29" d="M16.2202 44.957V36.3281H17.1281L17.2699 37.2496C17.3656 36.9021 17.5802 36.634 17.9288 36.449C18.2697 36.2639 18.626 36.1695 18.9976 36.1695C19.6259 36.1695 20.0856 36.279 20.3729 36.4905C20.6602 36.7058 20.8479 36.9852 20.9322 37.3289C21.0165 37.6725 21.0548 38.0464 21.0548 38.4504V44.9532H19.9553V38.609C19.9553 38.3976 19.9477 38.1974 19.94 38.001C19.9247 37.8047 19.8825 37.6272 19.8059 37.4724C19.7293 37.3138 19.6029 37.1891 19.4228 37.0985C19.2428 37.0079 18.9823 36.9588 18.6413 36.9588C18.3463 36.9588 18.105 37.0154 17.9211 37.1249C17.7372 37.2344 17.6031 37.3628 17.5112 37.5063C17.4231 37.6498 17.3618 37.7896 17.3235 37.9142V44.957H16.224H16.2202Z" fill="var(--fill-0, #19332E)"/>
<path id="Vector_30" d="M24.5027 44.9759C24.2421 44.9759 24.0046 44.9457 23.7901 44.889C23.5756 44.8286 23.3955 44.7342 23.2384 44.602C23.0852 44.4661 22.9664 44.2962 22.8822 44.0771C22.7979 43.8619 22.7596 43.5938 22.7596 43.2652V37.0041H21.9781V36.449L22.8324 36.3281L23.0277 34.7081H23.8629V36.3281H25.763V37.0079H23.8629V43.0726C23.8629 43.3974 23.9242 43.6731 24.0391 43.8921C24.1579 44.1111 24.4184 44.2244 24.8206 44.2244C24.9854 44.2244 25.1616 44.2131 25.3531 44.198C25.5408 44.1829 25.6787 44.1715 25.763 44.1715V44.8702C25.6673 44.8702 25.5025 44.8853 25.265 44.923C25.0275 44.9608 24.7746 44.9759 24.4988 44.9759H24.5027Z" fill="var(--fill-0, #19332E)"/>
<path id="Vector_31" d="M28.3029 45.0816C28.0309 45.0816 27.7551 45.0439 27.4755 44.9683C27.1958 44.8928 26.9583 44.7191 26.7629 44.4434C26.5675 44.1715 26.4718 43.7448 26.4718 43.1633V42.3249C26.4718 41.7434 26.6518 41.2789 27.0119 40.9201C27.372 40.5652 27.8662 40.2479 28.4945 39.9723C28.8967 39.7759 29.2262 39.5984 29.4829 39.4474C29.7395 39.2963 29.9311 39.1264 30.0613 38.9413C30.1916 38.7563 30.2567 38.5071 30.2567 38.1899V37.8236C30.2567 37.5441 30.1954 37.3289 30.0805 37.1778C29.9617 37.0268 29.8047 36.921 29.6093 36.8644C29.4139 36.8077 29.2109 36.7775 28.9963 36.7775C28.4638 36.7775 28.1152 36.9172 27.9505 37.2042C27.7858 37.4912 27.7015 37.9104 27.7015 38.4693V39.2019H26.6863V38.3636C26.6863 37.9368 26.7476 37.5517 26.8625 37.2193C26.9813 36.887 27.2035 36.6265 27.5368 36.4339C27.87 36.2413 28.3527 36.1469 28.9925 36.1469C29.6668 36.1469 30.1724 36.2224 30.5134 36.3735C30.8505 36.5245 31.0765 36.7398 31.1876 37.0192C31.2987 37.2986 31.3562 37.6272 31.3562 38.0124V44.9532H30.272L30.2567 43.8732C30.115 44.2697 29.8621 44.5681 29.4905 44.772C29.1228 44.9759 28.7243 45.0779 28.2991 45.0779V45.0665L28.3029 45.0816ZM28.7128 44.349C29.2453 44.349 29.6323 44.164 29.8775 43.7939C30.1188 43.4201 30.2414 42.9291 30.2414 42.3136V39.5607C30.1226 39.7495 29.9273 39.9156 29.6553 40.0667C29.3833 40.2177 29.1036 40.3688 28.8201 40.5198C28.4179 40.754 28.1037 40.9957 27.8854 41.2449C27.667 41.4941 27.5559 41.8416 27.5559 42.2834V42.9631C27.5559 43.3823 27.6172 43.6919 27.7321 43.8883C27.8509 44.0847 27.9965 44.2131 28.1765 44.2697C28.3527 44.3301 28.5328 44.3566 28.709 44.3566L28.7128 44.349Z" fill="var(--fill-0, #19332E)"/>
<path id="Vector_32" d="M37.9339 45.0967C37.4934 45.0967 37.1332 45.0401 36.8498 44.9306C36.5624 44.8211 36.3441 44.6625 36.1832 44.4585C36.0223 44.2546 35.915 44.0016 35.8537 43.6919C35.7924 43.3823 35.7656 43.0349 35.7656 42.6384V38.3334C35.7656 38.0199 35.8001 37.7291 35.8614 37.4724C35.9265 37.2118 36.0376 36.9852 36.1908 36.7926C36.3441 36.6 36.5548 36.449 36.8114 36.3395C37.0719 36.2299 37.4014 36.1733 37.8037 36.1733C38.2787 36.1733 38.6465 36.2413 38.9146 36.381C39.179 36.5207 39.3743 36.6907 39.4931 36.887V33.9717H40.5926V44.9532H39.8264L39.7191 44.1338C39.6502 44.2848 39.5429 44.4321 39.405 44.5794C39.2671 44.7229 39.087 44.8475 38.8533 44.9457C38.6235 45.0439 38.3132 45.093 37.9186 45.093L37.9339 45.0967ZM38.1255 44.4359C38.4664 44.4359 38.7346 44.3717 38.9261 44.2508C39.1138 44.13 39.2479 43.9676 39.3245 43.7712C39.4012 43.5749 39.4471 43.3559 39.4663 43.1179C39.4816 42.88 39.4931 42.6421 39.4931 42.4118V37.6876C39.4548 37.5819 39.3973 37.4686 39.3054 37.3402C39.2173 37.2118 39.0832 37.1023 38.907 37.0079C38.7307 36.9172 38.4856 36.8681 38.1791 36.8681C37.8381 36.8681 37.5738 36.9135 37.3976 37.0079C37.2214 37.0985 37.0911 37.2269 37.0145 37.3817C36.9379 37.5403 36.8919 37.714 36.8804 37.9104C36.8689 38.1068 36.8651 38.3107 36.8651 38.5184V42.7705C36.8651 43.05 36.8804 43.3181 36.9187 43.5711C36.957 43.8279 37.0605 44.0318 37.2367 44.1904C37.4129 44.349 37.7117 44.4246 38.1255 44.4246V44.4321V44.4359Z" fill="var(--fill-0, #19332E)"/>
<path id="Vector_33" d="M44.4733 45.0816C43.9293 45.0816 43.4773 45.0099 43.1133 44.8626C42.7494 44.7191 42.4851 44.4585 42.3127 44.0847C42.1403 43.7108 42.056 43.201 42.056 42.5515V38.5222C42.056 37.6838 42.2437 37.0872 42.6153 36.7284C42.9869 36.3697 43.6075 36.1884 44.4733 36.1884C45.3391 36.1884 45.9559 36.3621 46.3313 36.7133C46.7029 37.0607 46.8906 37.665 46.8906 38.526V42.5553C46.8906 43.2086 46.8064 43.7146 46.6416 44.0809C46.4769 44.4472 46.2164 44.7078 45.8601 44.8588C45.5038 45.0099 45.0441 45.0854 44.4733 45.0854V45.0816ZM44.4733 44.4019C44.9483 44.4019 45.2855 44.2848 45.4885 44.0545C45.6915 43.8203 45.7912 43.3974 45.7912 42.7819V38.4769C45.7912 37.9066 45.6992 37.4988 45.5077 37.2496C45.3161 37.0003 44.9752 36.8757 44.4771 36.8757C44.0136 36.8757 43.6803 36.9928 43.4734 37.2307C43.2666 37.4686 43.1593 37.884 43.1593 38.4769V42.7819C43.1593 43.3861 43.2627 43.8052 43.4734 44.0469C43.6803 44.2848 44.0136 44.4019 44.4771 44.4019H44.4733Z" fill="var(--fill-0, #19332E)"/>
<path id="Vector_34" d="M50.4764 45.0816C49.8366 45.0816 49.3386 45.0023 48.9823 44.8475C48.626 44.6889 48.377 44.4397 48.2353 44.096C48.0935 43.7524 48.0246 43.2954 48.0246 42.729V41.9775H49.1432V42.9707C49.1432 43.5182 49.239 43.8959 49.4305 44.1036C49.6183 44.315 49.963 44.417 50.4611 44.417C50.9016 44.417 51.2234 44.3113 51.4265 44.1036C51.6333 43.8959 51.7406 43.5409 51.7406 43.0386V42.5515C51.7406 42.2834 51.6985 42.053 51.618 41.8642C51.5337 41.6716 51.3805 41.4941 51.1468 41.3355C50.9169 41.1732 50.5913 41.0108 50.1814 40.8484C49.7906 40.6973 49.4459 40.535 49.1509 40.3612C48.8559 40.1875 48.6222 39.9647 48.4498 39.7004C48.2774 39.4323 48.1931 39.0924 48.1931 38.6732V38.1483C48.1931 37.5328 48.3732 37.0532 48.7333 36.7095C49.0972 36.3659 49.7064 36.196 50.5722 36.196C51.1391 36.196 51.5912 36.2715 51.9321 36.4225C52.2693 36.5736 52.5183 36.8191 52.6792 37.1552C52.8362 37.4912 52.9167 37.9293 52.9167 38.4618V39.1944H51.8325V38.356C51.8325 37.7745 51.7329 37.378 51.5299 37.1589C51.3268 36.9437 51.0089 36.8342 50.5683 36.8342C50.0703 36.8342 49.737 36.9512 49.5646 37.1816C49.3922 37.4157 49.308 37.7065 49.308 38.0539V38.526C49.308 38.8507 49.3807 39.1188 49.5301 39.3265C49.6795 39.5342 49.8903 39.7079 50.1622 39.8514C50.4342 39.9912 50.7599 40.1384 51.1391 40.2857C51.4801 40.4254 51.7866 40.5727 52.0547 40.7313C52.3229 40.8899 52.5298 41.1014 52.6868 41.3657C52.8401 41.6339 52.9167 41.9964 52.9167 42.4609V42.8612C52.9167 43.3256 52.8439 43.7222 52.6945 44.0583C52.5451 44.3906 52.2961 44.6398 51.9398 44.8173C51.5835 44.991 51.097 45.0779 50.484 45.0779L50.4764 45.0816Z" fill="var(--fill-0, #19332E)"/>
<path id="Vector_35" d="M56.7323 44.957L59.0577 34.6552H60.4981L62.7928 44.957H61.5861L61.0191 42.5704H58.4447L57.9122 44.957H56.7361H56.7323ZM58.4715 41.9624H60.9961L59.7511 35.9996L58.4715 41.9624Z" fill="var(--fill-0, #19332E)"/>
<path id="Vector_36" d="M65.7005 44.9759C65.44 44.9759 65.2025 44.9457 64.988 44.889C64.7734 44.8286 64.5934 44.7342 64.4363 44.602C64.2831 44.4661 64.1643 44.2962 64.08 44.0771C63.9958 43.8619 63.9574 43.5938 63.9574 43.2652V37.0041H63.1759V36.449L64.0302 36.3281L64.2256 34.7081H65.0607V36.3281H66.9609V37.0079H65.0607V43.0726C65.0607 43.3974 65.122 43.6731 65.237 43.8921C65.3557 44.1111 65.6162 44.2244 66.0185 44.2244C66.1832 44.2244 66.3594 44.2131 66.551 44.198C66.7387 44.1829 66.8766 44.1715 66.9609 44.1715V44.8702C66.8689 44.8702 66.7004 44.8853 66.4629 44.923C66.2254 44.9608 65.9725 44.9759 65.6967 44.9759H65.7005Z" fill="var(--fill-0, #19332E)"/>
<path id="Vector_37" d="M70.0908 45.0816C69.5468 45.0816 69.0947 45.0099 68.7308 44.8626C68.3668 44.7191 68.1025 44.4585 67.9301 44.0847C67.7577 43.7108 67.6734 43.201 67.6734 42.5515V38.5222C67.6734 37.6838 67.8612 37.0872 68.2328 36.7284C68.6044 36.3697 69.225 36.1884 70.0908 36.1884C70.9566 36.1884 71.5733 36.3621 71.9488 36.7133C72.3204 37.0607 72.5081 37.665 72.5081 38.526V42.5553C72.5081 43.2086 72.4238 43.7146 72.2591 44.0809C72.0943 44.4472 71.8338 44.7078 71.4776 44.8588C71.1213 45.0099 70.6616 45.0854 70.0908 45.0854V45.0816ZM70.0908 44.4019C70.5658 44.4019 70.9029 44.2848 71.106 44.0545C71.309 43.8203 71.4086 43.3974 71.4086 42.7819V38.4769C71.4086 37.9066 71.3128 37.4988 71.1251 37.2496C70.9336 37.0003 70.5926 36.8757 70.0946 36.8757C69.631 36.8757 69.2978 36.9928 69.0909 37.2307C68.884 37.4686 68.7767 37.884 68.7767 38.4769V42.7819C68.7767 43.3861 68.8802 43.8052 69.0909 44.0469C69.2978 44.2848 69.631 44.4019 70.0946 44.4019H70.0908Z" fill="var(--fill-0, #19332E)"/>
<path id="Vector_38" d="M76.5765 45.0816C76.0211 45.0816 75.6111 44.9872 75.343 44.7946C75.0748 44.602 74.8948 44.3906 74.8028 44.1602L74.7492 44.9608H73.9677V33.9793H75.0518V37.0494C75.1936 36.7586 75.4043 36.5434 75.6839 36.3923C75.9636 36.2488 76.316 36.1733 76.7413 36.1733C77.1895 36.1733 77.5687 36.2413 77.8791 36.381C78.1894 36.5207 78.4192 36.7473 78.5686 37.0607C78.7219 37.3742 78.7985 37.8122 78.7985 38.3673V42.6384C78.7985 43.1142 78.7563 43.5107 78.6644 43.8241C78.5763 44.1376 78.4422 44.3868 78.266 44.5756C78.0898 44.7644 77.8599 44.8928 77.5802 44.9683C77.3006 45.0439 76.9673 45.0816 76.5765 45.0816ZM76.3773 44.3113C76.7106 44.3113 76.9673 44.266 77.1588 44.1715C77.3466 44.0809 77.4845 43.9185 77.5687 43.692C77.653 43.4654 77.6913 43.1482 77.6913 42.7441V38.4051C77.6913 37.8273 77.5956 37.4308 77.4002 37.2193C77.2048 37.0079 76.8639 36.9059 76.3812 36.9059C75.8985 36.9059 75.5384 37.0268 75.3506 37.2722C75.1629 37.5177 75.0633 37.8727 75.0633 38.3371V42.6421C75.0633 43.235 75.1668 43.6617 75.3775 43.9223C75.5843 44.1829 75.9176 44.315 76.3812 44.315L76.3773 44.3113Z" fill="var(--fill-0, #19332E)"/>
<path id="Vector_39" d="M81.8517 45.0816C81.5797 45.0816 81.3039 45.0439 81.0242 44.9683C80.7446 44.8928 80.5071 44.7191 80.3117 44.4434C80.1163 44.1715 80.0205 43.7448 80.0205 43.1633V42.3249C80.0205 41.7434 80.2006 41.2789 80.5607 40.9201C80.9208 40.5652 81.415 40.248 82.0433 39.9723C82.4455 39.7759 82.775 39.5984 83.0317 39.4474C83.2883 39.2963 83.4799 39.1264 83.6101 38.9413C83.7404 38.7563 83.8055 38.5071 83.8055 38.1899V37.8236C83.8055 37.5441 83.7442 37.3289 83.6293 37.1778C83.5105 37.0268 83.3535 36.921 83.1581 36.8644C82.9627 36.8077 82.7597 36.7775 82.5451 36.7775C82.0126 36.7775 81.664 36.9172 81.4993 37.2042C81.3346 37.4912 81.2503 37.9104 81.2503 38.4693V39.2019H80.2351V38.3636C80.2351 37.9368 80.2964 37.5517 80.4113 37.2193C80.5301 36.887 80.7523 36.6265 81.0855 36.4339C81.4188 36.2413 81.9015 36.1469 82.5413 36.1469C83.2155 36.1469 83.7251 36.2224 84.0622 36.3735C84.3993 36.5245 84.6253 36.7398 84.7364 37.0192C84.8475 37.2986 84.905 37.6272 84.905 38.0124V44.9532H83.8208L83.8055 43.8732C83.6638 44.2697 83.4109 44.5681 83.0393 44.772C82.6754 44.9759 82.2731 45.0779 81.8479 45.0779V45.0665L81.8517 45.0816ZM82.2616 44.349C82.7941 44.349 83.1811 44.164 83.4262 43.7939C83.6676 43.4201 83.7902 42.9291 83.7902 42.3136V39.5607C83.6714 39.7495 83.476 39.9156 83.2041 40.0667C82.9321 40.2177 82.6524 40.3688 82.3689 40.5198C81.9667 40.754 81.6525 40.9957 81.4342 41.2449C81.2158 41.4941 81.1047 41.8416 81.1047 42.2834V42.9631C81.1047 43.3823 81.166 43.6919 81.2809 43.8883C81.3997 44.0847 81.5453 44.2131 81.7253 44.2697C81.9015 44.3301 82.0816 44.3566 82.2578 44.3566L82.2616 44.349ZM81.9782 35.4407L82.9933 33.8358H84.0928L82.6179 35.4407H81.9782Z" fill="var(--fill-0, #19332E)"/>
<path id="Vector_40" d="M88.5674 45.0816C87.9276 45.0816 87.4296 45.0023 87.0733 44.8475C86.717 44.6889 86.468 44.4397 86.3301 44.096C86.1883 43.7524 86.1194 43.2954 86.1194 42.729V41.9775H87.238V42.9707C87.238 43.5182 87.33 43.8959 87.5215 44.1036C87.7092 44.315 88.054 44.417 88.552 44.417C88.9926 44.417 89.3144 44.3113 89.5174 44.1036C89.7243 43.8959 89.8277 43.5409 89.8277 43.0386V42.5515C89.8277 42.2834 89.7894 42.053 89.7051 41.8642C89.6209 41.6716 89.4676 41.4941 89.2339 41.3355C89.0041 41.1732 88.6784 41.0108 88.2685 40.8484C87.8778 40.6973 87.533 40.535 87.238 40.3612C86.943 40.1875 86.7055 39.9647 86.537 39.7004C86.3646 39.4323 86.2803 39.0924 86.2803 38.6732V38.1483C86.2803 37.5328 86.4603 37.0532 86.8204 36.7095C87.1844 36.3659 87.7935 36.196 88.6593 36.196C89.2263 36.196 89.6783 36.2715 90.0193 36.4225C90.3564 36.5736 90.6054 36.8191 90.7663 37.1552C90.9234 37.4912 91.0038 37.9293 91.0038 38.4618V39.1944H89.9197V38.356C89.9197 37.7745 89.8201 37.378 89.617 37.1589C89.414 36.9437 89.096 36.8342 88.6555 36.8342C88.1574 36.8342 87.8242 36.9512 87.6518 37.1816C87.4794 37.4157 87.3951 37.7065 87.3951 38.0539V38.526C87.3951 38.8507 87.4679 39.1188 87.6173 39.3265C87.7667 39.5342 87.9774 39.7079 88.2494 39.8514C88.5214 39.9912 88.847 40.1384 89.2263 40.2857C89.5672 40.4254 89.8737 40.5727 90.1419 40.7313C90.41 40.8899 90.6169 41.1014 90.774 41.3657C90.9272 41.6339 91.0038 41.9964 91.0038 42.4609V42.8612C91.0038 43.3256 90.931 43.7222 90.7816 44.0583C90.6322 44.3906 90.3832 44.6398 90.0269 44.8173C89.6707 44.9948 89.1841 45.0779 88.5712 45.0779L88.5674 45.0816Z" fill="var(--fill-0, #19332E)"/>
</g>
</svg>
